<svg version="1.1" xmlns="http://www.w3.org/2000/svg" xmlns:xlink="http://www.w3.org/1999/xlink" width="24px" height="24px" viewBox="0,0,256,256"><g fill="#ffffff" fill-rule="nonzero" stroke="none" stroke-width="1" stroke-linecap="butt" stroke-linejoin="miter" stroke-miterlimit="10" stroke-dasharray="" stroke-dashoffset="0" font-family="none" font-weight="none" font-size="none" text-anchor="none" style="mix-blend-mode: normal"><g transform="translate(0.11733,0) scale(10.66667,10.66667)"><path d="M23.495,15.873l0.483,-3.873h-21.978v-7.667c0,-1.286 1.047,-2.333 2.333,-2.333c0.73,0 1.429,0.349 1.867,0.933l0.259,0.345l-0.574,3.29l1.071,1.67l5.777,-4.333l-1.071,-1.67l-3.607,-0.161l-0.256,-0.342c-0.814,-1.085 -2.11,-1.732 -3.467,-1.732c-2.389,0 -4.332,1.943 -4.332,4.333v7.667l0.519,3.873c0.256,2.048 1.264,3.841 2.726,5.117l-0.744,3.01h2.061l0.452,-1.832c1.085,0.533 2.301,0.832 3.578,0.832h6.831c1.273,0 2.485,-0.296 3.567,-0.826l0.451,1.826h2.061l-0.742,-3.001c1.467,-1.276 2.48,-3.073 2.737,-5.126zM8.591,21c-3.088,0 -5.705,-2.311 -6.088,-5.375l-0.203,-1.625h19.413l-0.202,1.625c-0.384,3.064 -3.001,5.375 -6.089,5.375z"></path></g></g></svg>