<svg version="1.1" xmlns="http://www.w3.org/2000/svg" xmlns:xlink="http://www.w3.org/1999/xlink" width="24px" height="24px" viewBox="0,0,256,256"><g fill="#ffffff" fill-rule="nonzero" stroke="none" stroke-width="1" stroke-linecap="butt" stroke-linejoin="miter" stroke-miterlimit="10" stroke-dasharray="" stroke-dashoffset="0" font-family="none" font-weight="none" font-size="none" text-anchor="none" style="mix-blend-mode: normal"><g transform="translate(0.05867,-0.02133) scale(10.66667,10.66667)"><path d="M22.115,5c-0.499,0 -0.948,-0.277 -1.171,-0.724c-0.394,-0.787 -1.186,-1.276 -2.065,-1.276h-0.882v-3h-0.5c-1.378,0 -2.5,1.122 -2.5,2.5v1.756l-1.351,3.744h-0.175l-11.847,-8h-1.624l11.705,8.001l-6.211,0.003c-0.935,0 -1.814,0.364 -2.475,1.025c-0.03,0.03 -0.051,0.066 -0.08,0.097c-0.558,-0.384 -1.946,-1.587 -1.946,-4.127h-1c0,2.974 1.634,4.44 2.378,4.954c-0.238,0.478 -0.378,1.002 -0.378,1.552l0.003,12.499h4.997v-6.005l7.003,-0.003v6.004h5.003l-0.008,-5.91l1.306,-7.09h1.199c1.378,0 2.5,-1.122 2.5,-2.5v-3.5h-1.882zM5.993,17v6.004h-2.997l-0.003,-11.499c0,-0.668 0.26,-1.296 0.732,-1.769c0.472,-0.472 1.1,-0.732 1.769,-0.732l7.506,-0.004v7.996zM18,18v5h-3.003v-6.005h-0.997v-7.624l5.042,2.941zM22.997,8.5c0,0.827 -0.673,1.5 -1.5,1.5h-2.032l-0.232,1.265l-4.711,-2.748l1.445,-4.004l0.03,-2.013c0,-0.652 0.418,-1.208 1,-1.415v2.915h1.882c0.499,0 0.948,0.277 1.171,0.724c0.394,0.787 1.186,1.276 2.065,1.276h0.882z"></path></g></g></svg>