<svg version="1.1" xmlns="http://www.w3.org/2000/svg" xmlns:xlink="http://www.w3.org/1999/xlink" width="512" height="512" viewBox="0,0,256,256"><g fill="#ffffff" fill-rule="nonzero" stroke="none" stroke-width="1" stroke-linecap="butt" stroke-linejoin="miter" stroke-miterlimit="10" stroke-dasharray="" stroke-dashoffset="0" font-family="none" font-weight="none" font-size="none" text-anchor="none" style="mix-blend-mode: normal"><g transform="translate(-0.00014,0) scale(10.66667,10.66667)"><path d="M24,9c0.00632,-1.52721 -1.13568,-2.81542 -2.65263,-2.99224c-1.51695,-0.17682 -2.92463,0.81418 -3.26974,2.3019c-0.34511,1.48772 0.4825,2.99726 1.92237,3.50634v4.184c0,3.31371 -2.68629,6 -6,6c-3.31371,0 -6,-2.68629 -6,-6v-0.08c3.43961,-0.49906 5.99335,-3.44438 6,-6.92v-4c-0.00331,-2.76005 -2.23995,-4.99669 -5,-5c-0.55228,0 -1,0.44772 -1,1c0,0.55228 0.44772,1 1,1c1.65685,0 3,1.34315 3,3v4c0,2.76142 -2.23858,5 -5,5c-2.76142,0 -5,-2.23858 -5,-5v-4c0,-1.65685 1.34315,-3 3,-3c0.55228,0 1,-0.44772 1,-1c0,-0.55228 -0.44772,-1 -1,-1c-2.76005,0.00331 -4.99669,2.23995 -5,5v4c0.00665,3.47562 2.56039,6.42094 6,6.92v0.08c0,4.41828 3.58172,8 8,8c4.41828,0 8,-3.58172 8,-8v-4.184c1.19435,-0.42225 1.99475,-1.54921 2,-2.816zM21,10c-0.55228,0 -1,-0.44772 -1,-1c0,-0.55228 0.44772,-1 1,-1c0.55228,0 1,0.44772 1,1c0,0.55228 -0.44772,1 -1,1z"></path></g></g></svg>