<svg version="1.1" xmlns="http://www.w3.org/2000/svg" xmlns:xlink="http://www.w3.org/1999/xlink" width="24px" height="24px" viewBox="0,0,256,256"><g fill="#ffffff" fill-rule="nonzero" stroke="none" stroke-width="1" stroke-linecap="butt" stroke-linejoin="miter" stroke-miterlimit="10" stroke-dasharray="" stroke-dashoffset="0" font-family="none" font-weight="none" font-size="none" text-anchor="none" style="mix-blend-mode: normal"><g transform="translate(0,0.00667) scale(10.66667,10.66667)"><path d="M21,19.586v-3.101c0,-1.871 -0.729,-3.628 -2.051,-4.95l-6.071,-6.071c-1.766,-1.766 -4.526,-1.915 -6.481,-0.481l-1.483,-1.483l1.793,-1.793c0.391,-0.391 0.391,-1.023 0,-1.414c-0.391,-0.391 -1.023,-0.391 -1.414,0l-5,5c-0.391,0.391 -0.391,1.023 0,1.414c0.195,0.195 0.451,0.293 0.707,0.293c0.256,0 0.512,-0.098 0.707,-0.293l1.793,-1.793l1.483,1.483c-1.434,1.955 -1.285,4.715 0.481,6.481l6.071,6.071c1.323,1.322 3.081,2.05 4.95,2.05h3.101l2.707,2.707c0.195,0.195 0.451,0.293 0.707,0.293c0.256,0 0.512,-0.098 0.707,-0.293c0.391,-0.391 0.391,-1.023 0,-1.414l-2.707,-2.707zM12.95,17.536l-6.071,-6.071c-0.566,-0.567 -0.878,-1.32 -0.878,-2.122c0,-0.802 0.312,-1.554 0.878,-2.121l0.343,-0.343c0.567,-0.566 1.32,-0.878 2.121,-0.878c0.801,0 1.555,0.312 2.122,0.878l0.622,0.622l-1.793,1.793c-0.391,0.391 -0.391,1.023 0,1.414c0.195,0.195 0.451,0.293 0.707,0.293c0.256,0 0.512,-0.098 0.707,-0.293l1.793,-1.793l1.586,1.586l-1.793,1.793c-0.391,0.391 -0.391,1.023 0,1.414c0.195,0.195 0.451,0.293 0.707,0.293c0.256,0 0.512,-0.098 0.707,-0.293l1.793,-1.793l1.036,1.036c0.187,0.187 0.344,0.394 0.497,0.604l-1.739,1.739c-0.391,0.391 -0.391,1.023 0,1.414c0.195,0.195 0.451,0.293 0.707,0.293c0.256,0 0.512,-0.098 0.707,-0.293l1.198,-1.198c0.063,0.318 0.095,0.644 0.095,0.976v2.515h-2.515c-1.335,0 -2.591,-0.52 -3.536,-1.464zM18.794,8.584c0.521,0.298 1.113,0.447 1.707,0.447c0.607,0 1.215,-0.156 1.742,-0.467c1.101,-0.649 1.757,-1.785 1.757,-3.04c0,-0.915 -0.349,-1.775 -0.982,-2.431c0,0 -1.245,-1.558 -1.275,-1.587c-0.697,-0.68 -1.787,-0.68 -2.484,0c-0.029,0.029 -1.281,1.593 -1.281,1.593c-0.631,0.652 -0.977,1.511 -0.977,2.425c0,1.273 0.671,2.417 1.794,3.06zM19.433,4.47c0.026,-0.026 1.067,-1.327 1.067,-1.327c0,0 1.034,1.294 1.061,1.32c0.283,0.284 0.439,0.66 0.439,1.061c0,0.547 -0.281,1.027 -0.772,1.316c-0.428,0.252 -1.006,0.256 -1.44,0.007c-0.5,-0.286 -0.787,-0.769 -0.787,-1.324c0,-0.401 0.153,-0.775 0.433,-1.054z"></path></g></g></svg>