<svg version="1.1" xmlns="http://www.w3.org/2000/svg" xmlns:xlink="http://www.w3.org/1999/xlink" width="512" height="512" viewBox="0,0,256,256"><g fill="#ffffff" fill-rule="nonzero" stroke="none" stroke-width="1" stroke-linecap="butt" stroke-linejoin="miter" stroke-miterlimit="10" stroke-dasharray="" stroke-dashoffset="0" font-family="none" font-weight="none" font-size="none" text-anchor="none" style="mix-blend-mode: normal"><g transform="scale(10.66667,10.66667)"><path d="M19.367,14.727c1.54339,-0.6048 2.57867,-2.07023 2.633,-3.727c0,-2.622 -2.5,-4.354 -6.8,-4.849c0.51801,-0.59666 0.80223,-1.36085 0.8,-2.151c0,-2.43 -2.355,-4 -6,-4c-3.645,0 -6,1.57 -6,4c0.0149,1.29172 0.74732,2.46783 1.9,3.051c-2.276,1.001 -2.9,2.555 -2.9,3.949c-0.01049,1.53215 0.85516,2.93566 2.229,3.614c-3.436,0.766 -5.229,2.243 -5.229,4.386c0,3.271 4.149,5 12,5c7.963,0 12,-1.682 12,-5c0,-2.057 -1.555,-3.484 -4.633,-4.273zM10,2c1.991,0 4,0.619 4,2c0,1.381 -2.009,2 -4,2c-1.991,0 -4,-0.619 -4,-2c0,-1.381 2.009,-2 4,-2zM12.5,8c3.46,0 7.5,0.786 7.5,3c0,2.214 -4.04,3 -7.5,3c-2.255,0 -7.5,-0.292 -7.5,-3c0,-2.708 5.245,-3 7.5,-3zM12,22c-6.075,0 -10,-1.178 -10,-3c0,-1.822 3.925,-3 10,-3c6.262,0 10,1.122 10,3c0,1.878 -3.738,3 -10,3z"></path></g></g></svg>